<?xml version="1.0" standalone="no"?>
<!DOCTYPE svg PUBLIC "-//W3C//DTD SVG 1.1//EN" "http://www.w3.org/Graphics/SVG/1.1/DTD/svg11.dtd" >
<svg xmlns="http://www.w3.org/2000/svg">
<metadata>
Created by FontForge 20120731 at Wed Jul 26 10:09:13 2017
 By admin
</metadata>
<defs>
<font id="iconfont" horiz-adv-x="1024" >
  <font-face 
    font-family="iconfont"
    font-weight="500"
    font-stretch="normal"
    units-per-em="1024"
    panose-1="2 0 6 3 0 0 0 0 0 0"
    ascent="896"
    descent="-128"
    x-height="792"
    bbox="-0.56 -149 1024.5 896"
    underline-thickness="0"
    underline-position="0"
    unicode-range="U+0078-E88A"
  />
<missing-glyph 
 />
    <glyph glyph-name=".notdef" 
 />
    <glyph glyph-name=".notdef" 
 />
    <glyph glyph-name=".null" horiz-adv-x="0" 
 />
    <glyph glyph-name="nonmarkingreturn" horiz-adv-x="341" 
 />
    <glyph glyph-name="x" unicode="x" horiz-adv-x="1001" 
d="M281 543q-27 -1 -53 -1h-83q-18 0 -36.5 -6t-32.5 -18.5t-23 -32t-9 -45.5v-76h912v41q0 16 -0.5 30t-0.5 18q0 13 -5 29t-17 29.5t-31.5 22.5t-49.5 9h-133v-97h-438v97zM955 310v-52q0 -23 0.5 -52t0.5 -58t-10.5 -47.5t-26 -30t-33 -16t-31.5 -4.5q-14 -1 -29.5 -0.5
t-29.5 0.5h-32l-45 128h-439l-44 -128h-29h-34q-20 0 -45 1q-25 0 -41 9.5t-25.5 23t-13.5 29.5t-4 30v167h911zM163 247q-12 0 -21 -8.5t-9 -21.5t9 -21.5t21 -8.5q13 0 22 8.5t9 21.5t-9 21.5t-22 8.5zM316 123q-8 -26 -14 -48q-5 -19 -10.5 -37t-7.5 -25t-3 -15t1 -14.5
t9.5 -10.5t21.5 -4h37h67h81h80h64h36q23 0 34 12t2 38q-5 13 -9.5 30.5t-9.5 34.5q-5 19 -11 39h-368zM336 498v228q0 11 2.5 23t10 21.5t20.5 15.5t34 6h188q31 0 51.5 -14.5t20.5 -52.5v-227h-327z" />
    <glyph glyph-name="renwu" unicode="&#xe673;" 
d="M860 635h-94v-154h-510v154h-92q-14 0 -24.5 -10t-10.5 -25v-714q0 -15 10.5 -25t24.5 -10h696q14 0 24 10t10 25v714q0 15 -10 25t-24 10zM782 337l-301 -369q1 -4 -3 -4.5t-7 2.5l-220 180q-8 7 -1 15l36 45q7 8 16 1l166 -137l258 315q6 11 15 4l43 -35q8 -6 -2 -17z
M643 680v28q0 22 -15.5 37t-36.5 15h-158q-21 0 -36.5 -15t-15.5 -37v-28h-61v-140h383v140h-60zM512 591q-24 0 -40.5 17t-16.5 40.5t16.5 40.5t40.5 17t40.5 -17t16.5 -40q0 -27 -16 -42.5t-41 -15.5z" />
    <glyph glyph-name="feiji" unicode="&#xe606;" 
d="M254 239l-22 -22l115 -78l63 -102l22 21l-15 111l120 113l88 -245l45 46l-47 274l97 97q31 32 37.5 59t-9.5 40q-13 16 -38.5 9t-57.5 -39l-96 -97l-277 54l-45 -47l248 -91l-113 -125zM512 -143q90 0 172 35t141.5 94.5t94.5 141.5t35 172t-35 172t-94.5 141.5
t-141.5 94.5t-172 35t-172 -35t-141.5 -94.5t-94.5 -141.5t-35 -172t35 -172t94.5 -141.5t141.5 -94.5t172 -35zM512 712q112 0 207 -55t150 -150t55 -207t-55 -207t-150 -150t-207 -55t-207 55t-150 150t-55 207t55 207t150 150t207 55z" />
    <glyph glyph-name="volumehigh" unicode="&#xe600;" 
d="M699 50q-12 0 -20 10q-7 8 -5.5 18.5t9.5 17.5q40 32 62.5 79t22.5 99.5t-22.5 99t-62.5 79.5q-8 7 -9 17.5t5.5 18.5t17 9.5t18.5 -5.5q50 -40 77 -97.5t27 -121.5t-27 -121t-77 -97q-7 -6 -16 -6v0zM796 -69q-12 0 -20 9q-7 9 -5.5 19.5t9.5 16.5q67 55 104.5 133
t37.5 165t-37.5 165t-104.5 133q-8 7 -9.5 17.5t5.5 19t17.5 9.5t18.5 -6q77 -62 119 -150.5t42 -187t-42 -187t-119 -150.5q-7 -6 -16 -6v0zM602 169q-12 0 -20 10q-6 8 -5 18.5t9 17.5q28 23 28 59.5t-28 59.5q-8 7 -9 17.5t5.5 18.5t17 9t18.5 -5q48 -39 48 -100t-48 -99
q-7 -6 -16 -6v0zM417 648q-19 0 -37 -16l-210 -178h-93q-32 0 -54.5 -22.5t-22.5 -54.5v-205q0 -32 22.5 -54.5t54.5 -22.5h93l210 -178q18 -16 37 -16v0q22 0 35 19q9 13 9 34v640q0 26 -13 40t-31 14v0zM51 172v205q0 10 7.5 17.5t18.5 7.5h77v-256h-77q-11 0 -18.5 7.5
t-7.5 18.5zM410 -41l-205 174v283l205 174v-631z" />
    <glyph glyph-name="yundanshenyue" unicode="&#xe628;" 
d="M875 -15l-59 60q15 25 15 54q0 45 -32.5 77.5t-78 32.5t-77.5 -32.5t-32 -78t32 -77.5t78 -32q29 0 55 15l59 -59q2 -2 5 -2t5 2l30 30q5 5 0 10zM721 31q-28 0 -47.5 20t-19.5 48t19.5 47.5t47.5 19.5t47.5 -19.5t19.5 -47.5t-19.5 -48t-47.5 -20zM721 -31q-52 0 -89 37
t-37 89.5t37 89.5t89 37q37 0 68 -20.5t46 -53.5v424h-130v31q0 21 -14.5 35.5t-35 14.5t-35 -14.5t-14.5 -35.5v-31h-262v31q0 21 -14.5 35.5t-35 14.5t-35 -14.5t-14.5 -35.5v-31h-130v-658h726l-62 70q-24 -15 -58 -15zM212 472h33v-10q0 -20 14.5 -35t35 -15t35 15
t14.5 35v10h262v-10q0 -20 14.5 -35t35 -15t35 15t14.5 35v10h34v-158h-527v158z" />
    <glyph glyph-name="dingdan" unicode="&#xe66c;" 
d="M737 540h-346q-6 0 -10.5 -5t-4.5 -12t4.5 -12t10.5 -5h346q6 0 10.5 5t4.5 12t-4.5 12t-10.5 5zM272 523q0 -7 4 -12t10 -5h41q6 0 10 5t4 12t-4 12t-10 5h-41q-6 0 -10 -5t-4 -12zM737 351h-346q-6 0 -10.5 -5t-4.5 -12t4.5 -12t10.5 -5h346q6 0 10.5 5t4.5 12t-4.5 12
t-10.5 5zM327 351h-41q-6 0 -10 -5t-4 -12t4 -12t10 -5h41q6 0 10 5t4 12t-4 12t-10 5zM737 162h-346q-6 0 -10.5 -5t-4.5 -12t4.5 -12t10.5 -5h346q6 0 10.5 5t4.5 12t-4.5 12t-10.5 5zM327 162h-41q-6 0 -10 -5t-4 -12t4 -12t10 -5h41q6 0 10 5t4 12t-4 12t-10 5zM392 660
h241q14 0 24 10t10 25v86q0 14 -10 24t-24 10h-241q-14 0 -24 -10t-10 -24v-86q0 -15 10 -25t24 -10zM392 781h241v-86h-241v86zM839 815h-138v-34h138q21 0 36 -15.5t15 -36.5v-687q0 -22 -15 -37t-36 -15h-653q-21 0 -36.5 15t-15.5 37v687q0 21 15.5 36.5t36.5 15.5h137
v34h-137q-36 0 -61 -25t-25 -61v-687q0 -36 25 -61t61 -25h653q35 0 60.5 25t25.5 61v687q0 36 -25.5 61t-60.5 25z" />
    <glyph glyph-name="tianjia" unicode="&#xe613;" 
d="M800 -97h-576q-53 0 -90.5 37.5t-37.5 90.5v704q0 54 37.5 91t90.5 37h412q18 4 31 -9l250 -249q8 -8 10 -20q1 -5 1 -10v-544q0 -53 -37.5 -90.5t-90.5 -37.5zM672 750v-143h142zM864 543h-224q-13 0 -22.5 9.5t-9.5 22.5v224h-384q-27 0 -45.5 -18.5t-18.5 -45.5v-704
q0 -26 18.5 -45t45.5 -19h576q27 0 45.5 19t18.5 45v512zM704 287h-160v-160q0 -13 -9.5 -22.5t-22.5 -9.5t-22.5 9.5t-9.5 22.5v160h-160q-13 0 -22.5 9.5t-9.5 23t9.5 22.5t22.5 9h160v160q0 14 9.5 23t22.5 9t22.5 -9t9.5 -23v-160h160q13 0 22.5 -9t9.5 -22.5t-9.5 -23
t-22.5 -9.5z" />
    <glyph glyph-name="202" unicode="&#xe619;" 
d="M344 33q-13 0 -21.5 9t-8.5 21.5t9 21.5l309 304l-312 313q-9 9 -9 21.5t9 21.5t21.5 9t21.5 -9l335 -334q9 -10 9 -22.5t-10 -21.5l-331 -325q-9 -9 -22 -9z" />
    <glyph glyph-name="zhiyejineng1" unicode="&#xe614;" 
d="M913 592q-40 33 -97 40q3 23 13 91l5 35h-636l5 -35q9 -58 14 -91q-63 -4 -106 -40q-53 -46 -53 -119t50 -131q24 -28 55 -44q34 -17 71 -17q21 0 42 5q9 -25 23 -45q24 -36 73 -68q52 -34 114 -41v-58h-98q-13 0 -22 -9t-9 -21.5t9 -21.5t22 -9h257q13 0 22 9t9 21.5
t-9 21.5t-22 9h-98v58q62 7 114 41q48 32 73 68q13 19 22 43q17 -3 34 -3q37 0 71 17q31 16 55 44q50 58 50 131t-53 119zM234 342q-47 0 -81 42t-34 89q0 46 31 71t76 28q23 -157 32 -215l2 -12q-13 -3 -26 -3zM627 224q-50 -32 -109 -32h-2v0v0h-1q-60 0 -109 32
q-40 26 -59.5 55.5t-28.5 87.5q-12 81 -49 329h494q-36 -248 -49 -329q-9 -58 -28.5 -87.5t-58.5 -55.5zM790 342q-9 0 -17 2q1 6 2 13q9 58 32 214q42 -5 70 -29.5t28 -68.5q0 -47 -34 -89t-81 -42z" />
    <glyph glyph-name="tianjiaadd143" unicode="&#xe610;" 
d="M279 12h280q0 23 5 46h-285v-46zM791 -128v93h93v93h-93v93h-93v-93h-93v-93h93v-93h93zM745 198h-466v-47h343q52 47 123 47zM279 617h466v-47h-466v47zM279 337h466v-46h-466v46zM884 691l-203 205h-519q-2 0 -6 -0.5t-10 -6.5t-6 -16v-978q0 -10 5.5 -16t11.5 -6l5 -1
h460q-23 20 -39 47h-397v930h466v-139q0 -21 11.5 -32.5t23.5 -12.5l11 -2h140v-490q26 -15 46 -38v556zM279 756h280v-46h-280v46zM279 477h466v-46h-466v46z" />
    <glyph glyph-name="shanchu1" unicode="&#xe681;" 
d="M512 -123q-103 0 -197 40.5t-161.5 108.5t-108 161.5t-40.5 196.5t40.5 197t108 162t161.5 108t197 40t197 -40t162 -108t108 -162t40 -197t-40 -196.5t-108 -161.5t-162 -108.5t-197 -40.5zM512 871q-99 0 -189 -38.5t-155.5 -103.5t-104 -155.5t-38.5 -189.5t38.5 -189
t104 -155t155.5 -104t189 -39t189 39t155.5 104t104 155t38.5 189t-38.5 189.5t-104 155.5t-155.5 103.5t-189 38.5zM511 418l-203 205q-7 7 -17.5 7t-17.5 -7t-7 -17.5t7 -17.5l203 -205l-203 -202q-7 -8 -7 -18t7 -17t17 -7.5t18 7.5l203 202l203 -204q8 -7 18 -7t17.5 7
t7.5 17.5t-8 17.5l-203 204l205 205q8 7 8 17.5t-7.5 17.5t-17.5 7t-17 -7l-206 -205v0v0z" />
    <glyph glyph-name="zhiye" unicode="&#xe84b;" 
d="M482 -124h-6q-235 0 -264 1q-70 0 -105 60q-14 22 -16 52v10v319q0 64 50 101q30 22 71 22h84q5 0 7 -5q56 -175 177 -554q0 -1 2 -6v0v0zM512 892q90 0 154 -65.5t64 -157.5q0 -91 -64 -156.5t-154 -65.5t-154 65.5t-64 157t64 157t154 65.5v0v0zM512 -12q-3 10 -9 28.5
t-8 23.5q-68 213 -88 274q-2 7 3 11q39 32 98 84q4 3 8 0q44 -38 99 -85q4 -3 2 -8q-30 -94 -103 -324q-1 0 -2 -4v0v0zM933 159v159q0 33 -13 58q-33 60 -97 64q-7 2 -48 1.5t-48 -0.5q-4 0 -6 -4q-3 -10 -9 -28t-8 -26q-137 -429 -160 -501q-2 -6 3 -6h145.5h121.5
q34 1 60 17q59 36 59 106v160v0v0zM851 65q-4 -2 -10 -2h-86h-58q-10 0 -15 6.5t-3 15.5q3 11 15 12h17h59v0h74q14 0 16.5 -13.5t-9.5 -18.5v0v0z" />
    <glyph glyph-name="shanchu" unicode="&#xe66e;" 
d="M366 102v460q0 8 -6.5 14.5t-15 6.5t-14.5 -6.5t-6 -14.5v-460q0 -9 6 -15t14.5 -6t15 6t6.5 15v0zM533 102v460q0 8 -6 14.5t-15 6.5t-15 -6.5t-6 -14.5v-460q0 -9 6 -15t15 -6t15 6t6 15v0zM868 604q-9 0 -15 -6.5t-6 -14.5v-565q0 -17 -12.5 -29.5t-29.5 -12.5h-586
q-17 0 -29.5 12.5t-12.5 29.5v565q0 8 -6 14.5t-15 6.5q-16 0 -20 -16v0h-1v-570q0 -35 24.5 -59.5t59.5 -24.5h586q34 0 58.5 24.5t24.5 59.5v565q0 8 -6 14.5t-14 6.5v0zM930 750h-240l-78 77q-6 7 -16 7v0h-168v0q-10 0 -16 -7l-78 -77h-240q-9 0 -15 -6t-6 -15t6 -15
t15 -6h251v0v0q10 0 17 7l77 77h146l77 -77q7 -7 17 -7v0v0h251q9 0 15 6t6 15t-6 15t-15 6v0zM700 102v460q0 8 -6 14.5t-14.5 6.5t-15 -6.5t-6.5 -14.5v-460q0 -9 6.5 -15t15 -6t14.5 6t6 15v0zM700 102z" />
    <glyph glyph-name="tesefuwu" unicode="&#xe620;" 
d="M512.5 892q-103.5 0 -197 -40.5t-161.5 -108.5t-108.5 -161.5t-40.5 -196.5t40.5 -197t108.5 -162t161.5 -108.5t197 -40.5t197 40.5t161.5 108.5t108.5 162t40.5 197t-40.5 196.5t-108.5 161.5t-161.5 108.5t-197 40.5zM512.5 -71q-92.5 0 -177 36t-145.5 97t-97 145.5
t-36 177t36 177t97 145.5t145.5 97t177 36t177 -36t145.5 -97t97 -145.5t36 -177t-36 -177t-97 -145.5t-145.5 -97t-177 -36zM490 368.5q-2 10.5 -10.5 17t-19.5 4.5l-50 -8v110h52q10 0 18 7.5t8 18t-8 18.5t-18 8h-52v86q0 11 -7.5 18.5t-18.5 7.5t-18.5 -7.5t-7.5 -18.5
v-86h-35v52q0 10 -7.5 17.5t-18 7.5t-18.5 -7.5t-8 -17.5v-62q0 -14 -6.5 -23t-13.5 -9q-11 0 -18.5 -7.5t-7.5 -18.5t7.5 -18.5t18.5 -7.5q41 0 62 42h45v-118l-107 -16q-11 -2 -17.5 -10.5t-4.5 -19.5q1 -9 8.5 -15.5t17.5 -6.5h4l99 16v-177q0 -10 7.5 -17.5t18.5 -7.5
t18.5 7.5t7.5 17.5v185l58 9q11 1 17.5 10t4.5 19.5zM756 492h-104v52h87q10 0 18 7.5t8 18t-8 18.5t-18 8h-87v69q0 10 -7.5 18t-18.5 8t-18.5 -8t-7.5 -18v-69h-69q-11 0 -18.5 -8t-7.5 -18.5t7.5 -18t18.5 -7.5h69v-52h-86q-11 0 -18.5 -8t-7.5 -18.5t7.5 -18t18.5 -7.5
h242q11 0 18.5 7.5t7.5 18t-7.5 18.5t-18.5 8zM756 370h-52v35q0 11 -7.5 18.5t-18.5 7.5t-18.5 -7.5t-7.5 -18.5v-35h-138q-11 0 -18.5 -7.5t-7.5 -18t7.5 -18t18.5 -7.5h138v-124q0 -14 -2 -19.5t-12.5 -9.5t-33.5 -4q-11 0 -18.5 -7.5t-7.5 -18.5t7.5 -18.5t18.5 -7.5
q14 0 22.5 0.5t25 5t26.5 12.5t18 25.5t8 41.5v124h52q11 0 18.5 7.5t7.5 18t-7.5 18t-18.5 7.5zM539.5 293q-10.5 0 -18 -8t-7.5 -18v-52q0 -11 7.5 -18.5t18 -7.5t18.5 7.5t8 18.5v52q0 10 -8 18t-18.5 8z" />
    <glyph glyph-name="baocunguanbi" unicode="&#xe6a6;" 
d="M358 268l-147 -147l-147 147l-47 -46l147 -147l-147 -147l47 -47l147 147l147 -147l46 47l-147 147l147 147zM840 382v0v0v447h-595v-447h595zM305 829h474v-380h-474v380zM852 896h-620q-63 0 -108.5 -50.5t-45.5 -121.5v-407h60v407q0 44 28 74.5t66 30.5v0h13v0h14
h593q39 0 66.5 -30.5t27.5 -74.5v-680q0 -44 -27.5 -74.5t-66.5 -30.5h-431v-67h431q64 0 109.5 50.5t45.5 121.5v680q0 71 -45.5 121.5t-109.5 50.5zM245 382h595v0v0v447h-61v-380h-474v380h-46h-14v-447zM631 730h60v-223h-60v223z" />
    <glyph glyph-name="rili" unicode="&#xe64c;" 
d="M426 761h171q7 0 12 5t5 12t-5 12t-12 5h-171q-7 0 -12 -5t-5 -12t5 -12t12 -5zM340 420q0 14 -10 24t-25 10h-34q-14 0 -24 -10t-10 -24v-34q0 -14 10 -24t24 -10h34q15 0 25 10t10 24v34zM562 420q0 14 -10 24t-24 10h-35q-14 0 -24 -10t-10 -24v-34q0 -14 10 -24
t24 -10h35q14 0 24 10t10 24v34zM783 420q0 14 -10 24t-24 10h-35q-14 0 -24 -10t-10 -24v-34q0 -14 10 -24t24 -10h35q14 0 24 10t10 24v34zM340 172q0 14 -10 24t-25 10h-34q-14 0 -24 -10t-10 -24v-34q0 -14 10 -24t24 -10h34q15 0 25 10t10 24v34zM562 172q0 14 -10 24
t-24 10h-35q-14 0 -24 -10t-10 -24v-34q0 -14 10 -24t24 -10h35q14 0 24 10t10 24v34zM867 795h-134q-7 0 -12 -5t-5 -12t5 -12t12 -5h134q8 0 13 -5t5 -10v-156h-750v156q0 5 6.5 10t15.5 5h133q7 0 12 5t5 12t-5 12t-12 5h-133q-23 0 -39.5 -14.5t-16.5 -34.5v-723
q0 -20 16.5 -33.5t39.5 -13.5h710q22 0 37.5 13.5t15.5 33.5v723q0 20 -15.5 34.5t-37.5 14.5zM867 11h-710q-9 0 -15.5 3.5t-6.5 8.5v533h750v-533q0 -12 -18 -12zM663 710q7 0 12 5t5 12v103q0 7 -5 12t-12 5t-11.5 -5t-4.5 -12v-103q0 -7 4.5 -12t11.5 -5zM356.5 710
q7.5 0 12 5t4.5 12v103q0 7 -4.5 12t-12 5t-12 -5t-4.5 -12v-103q0 -7 4.5 -12t12 -5z" />
    <glyph glyph-name="dabiaotijingdian" unicode="&#xe627;" 
d="M512 862q97 0 185.5 -38t152.5 -102t102 -152.5t38 -185.5t-38 -185.5t-102 -152.5t-152.5 -102t-185.5 -38t-185.5 38t-152.5 102t-102 152.5t-38 185.5t38 185.5t102 152.5t152.5 102t185.5 38zM512 896q-212 0 -362 -150t-150 -362t150 -362t362 -150t362 150t150 362
t-150 362t-362 150v0zM674 222q-27 0 -53 22q-15 12 -27 12q-14 0 -31 -14q-24 -20 -49 -20q-27 0 -53 22q-15 12 -28 12q-14 0 -30 -14q-25 -20 -50 -20q-27 0 -53 22q-15 12 -27 12q-17 0 -17 17t17 17q25 0 50 -20q13 -14 30 -14q13 0 28 12q25 22 52 22q25 0 50 -20
q14 -14 31 -14q12 0 27 12q26 22 53 22q25 0 49 -20q17 -14 31 -14q15 0 29 14q21 20 51 20q17 0 17 -17t-17 -17q-15 0 -29 -14q-24 -20 -51 -20zM592 128q-25 0 -49 20q-17 14 -31 14q-12 0 -27 -12q-26 -22 -53 -22t-53 22q-15 12 -27 12q-8 0 -12.5 5t-4.5 12
q0 17 17 17q24 0 49 -20q14 -14 31 -14q14 0 31 14q24 20 49 20q27 0 53 -22q15 -12 27 -12q15 0 31 14q25 20 49 20q17 0 17 -17t-17 -17q-12 0 -27 -12q-26 -22 -53 -22zM749 326h-292l116 198q12 17 31 17q22 0 31 -17zM515 360h174l-85 147h-3zM497 326h-222l164 297
q8 19 30.5 19t30.5 -19l82 -147zM333 360h143l67 114l-74 132h-1h1z" />
    <glyph glyph-name="duxinye-yiyue" unicode="&#xe62b;" 
d="M1021 -34q0 -34 -23.5 -58t-57.5 -24h-851q-34 0 -57.5 24t-23.5 58v486q0 14 2 20h-2q313 279 447 380q39 31 58.5 31.5t58.5 -29.5q59 -45 171.5 -140.5t194.5 -168.5l83 -73h-2q2 -6 2 -20v-486zM352 340v0q0 -10 11 -10v0h304v0q10 0 10 10v0v41v0q0 10 -10 10v0
h-304v0q-11 0 -11 -10v0v-41zM352 442v0q0 -10 11 -10v0h304v0q10 0 10 10v0v40v0q0 10 -10 10v0h-304v0q-11 0 -11 -10v0v-40zM819 472v142h-608v-142h-142q1 -1 202 -157v238h487v-238l202 157v0h-141z" />
    <glyph glyph-name="sousuo" unicode="&#xe626;" 
d="M121 775.5q59 59.5 135 90t157 30.5t157 -30.5t135.5 -90t90.5 -135.5t31 -157q0 -160 -106 -277l296 -296q10 -10 6.5 -22.5t-14.5 -15t-23 6.5l-296 296q-117 -106 -277 -106q-81 0 -157 31t-135 90.5t-90 135.5t-31 157t31 157t90 135.5zM151 745
q-53 -53 -80.5 -121.5t-27.5 -141t27.5 -140.5t80.5 -121.5t121.5 -81t141 -27.5t140.5 27.5t121.5 81t81 121.5t27.5 140.5t-27.5 141t-81 121.5t-121.5 80.5t-140.5 27.5t-141 -27.5t-121.5 -80.5z" />
    <glyph glyph-name="icon-medal" unicode="&#xe629;" 
d="M511.5 632q-95.5 0 -175.5 -46t-126 -126t-46 -175.5t46 -176t126 -126.5t175.5 -46t176 46t126.5 126.5t46 176t-46 175.5t-126.5 126t-176 46zM689 318l-69 -68l18 -97q4 -26 -7.5 -34t-32.5 5l-86 46l-86 -46q-21 -12 -32.5 -2.5t-7.5 31.5l18 97l-69 68
q-17 17 -12.5 32.5t29.5 19.5l92 11l39 86q9 21 24 21t28 -21l40 -86l97 -11q57 -19 17 -52zM860 792q3 3 4.5 5.5t1.5 4.5v1q0 9 -7 16t-16 7h-217q-9 0 -16 -4.5t-7 -12.5l-68 -125q6 -1 16 -1.5t39 -6.5t56 -14.5t60 -27t57 -42.5zM489 684l-68 131q0 8 -7 12.5t-16 4.5
h-211q-13 0 -21 -7t-8 -16q0 -11 6 -11l97 -200q38 33 97.5 54.5t90.5 26.5t40 5z" />
    <glyph glyph-name="tongji1" unicode="&#xe70a;" 
d="M777 413q3 24 3 38q0 30 -5 44l96 75q10 11 5 27l-91 156q-9 9 -27 5l-113 -45q-22 17 -76 45l-19 116q2 9 -4.5 15.5t-14.5 6.5h-181q-7 0 -14.5 -5.5t-7.5 -11.5l-19 -121q-12 -4 -23.5 -10.5t-29 -18.5t-24.5 -16l-107 45q-15 5 -33 -9l-90 -155q-8 -8 9 -27l95 -72
q0 -6 -2.5 -20.5t-2.5 -23.5q0 -31 5 -45l-95 -75q-11 -11 -6 -27l91 -156q9 -9 27 -5l113 45q22 -17 77 -45l18 -116q0 -6 6.5 -11.5t16.5 -5.5h146q-6 30 -6 69q1 123 81.5 217.5t201.5 116.5zM282 451q0 64 46.5 109.5t112.5 45.5q64 0 111 -46.5t47 -108.5
q0 -64 -46.5 -110t-111.5 -46q-64 -1 -111.5 45.5t-47.5 110.5zM785.5 350q-98.5 0 -169 -70.5t-70.5 -169t70.5 -168.5t169 -70t168.5 70t70 168.5t-70 169t-168.5 70.5zM929 143q-5 0 -9 2l-56 -56q0 -1 1 -4t1 -5q0 -13 -9.5 -22.5t-23.5 -9.5q-13 0 -22.5 9t-9.5 23
q0 5 1 9l-40 39q-1 0 -4 -1t-5 -1q-5 0 -9 2l-71 -73q0 -1 0.5 -4t0.5 -5q0 -13 -9 -22.5t-23 -9.5q-13 0 -22.5 9t-9.5 23q0 13 9 23t23 10q5 0 9 -2l73 71q0 1 -1 4t-1 5q0 13 9.5 22.5t23.5 9.5q13 0 22.5 -9t9.5 -23q0 -5 -2 -9l41 -40q1 0 4 0.5t5 0.5q5 0 8 -1l57 56
l-1 3t-1 5q0 13 9.5 23t22.5 10q15 0 24 -9.5t9 -23.5q0 -13 -10.5 -21t-23.5 -8z" />
    <glyph glyph-name="hot" unicode="&#xe605;" 
d="M378 16q-23 48 -25.5 89t8 67t32.5 58q18 26 30.5 56t16.5 46l4 17q1 -2 3 -5t7.5 -14t7.5 -22.5t4 -30t-3 -36.5q39 43 53 105t6 98q64 -44 102.5 -118.5t40.5 -154.5t-33 -155q80 45 128.5 100.5t62 108t8.5 106.5t-25 99t-46 84t-47 62.5t-35 32.5q15 -26 12.5 -68
t-26.5 -64q-16 63 -43 113.5t-54 78t-51.5 46.5t-40.5 25l-15 6q21 -139 -139 -334q-2 40 -7.5 65.5t-21.5 55.5q-3 -45 -41 -121.5t-45 -112.5q-18 -88 20.5 -153.5t151.5 -129.5v0v0zM516.5 886q-102.5 0 -196.5 -40t-161.5 -107.5t-107.5 -161t-40 -196.5t40 -196.5
t107.5 -161.5t161.5 -108t196.5 -40t196 40t161.5 108t108 161.5t40 196.5t-40 196.5t-108 161t-161.5 107.5t-196 40zM516 -76q-93 0 -177.5 36t-145.5 97.5t-97 146t-36 177.5t36 177.5t97 145.5t145.5 97t177.5 36t177.5 -36t146 -97t97.5 -145.5t36 -177.5t-36 -177.5
t-97.5 -146t-146 -97.5t-177.5 -36z" />
    <glyph glyph-name="shenyue" unicode="&#xe64d;" 
d="M920 242q-31 70 -96.5 112t-143.5 42q-56 0 -107 -23q-65 -29 -106 -86t-47.5 -123t21.5 -134q31 -69 96.5 -111t143.5 -42q56 0 107 23q99 44 138 144.5t-6 197.5zM888 58q-33 -85 -117 -122q-43 -19 -90 -19q-66 0 -121.5 35.5t-81.5 94.5q-38 83 -5 168t117 122
q43 19 90 19q66 0 121.5 -35.5t81.5 -94.5q38 -83 5 -168zM780 145l30 78q4 12 -4 21q-6 6 -15 6q-3 0 -6 -1l-81 -24l-66 52q-5 5 -12 5q-5 0 -9 -2q-12 -6 -12 -18l-2 -83l-70 -46q-11 -7 -9.5 -19.5t13.5 -16.5l80 -27l23 -81q3 -12 15 -14h4v0q5 0 9 1q4 2 7 7l51 66
l86 -4q12 0 17 11q7 10 -1 21zM717 90q-10 0 -17 -8l-32 -43l-14 52q-3 10 -13 13l-51 18l45 29q9 6 9 16l1 54l42 -34q6 -4 13 -4q3 0 6 1l51 15l-19 -50q-3 -9 3 -18l30 -44zM152 -12v606h223q35 0 60 25t25 60v161h372q15 0 25.5 -10.5t10.5 -25.5v-418h49v418
q0 35 -25 60t-60 25h-396v0q-2 -1 -4 -1l-4.5 -1.5t-4.5 -2.5q-1 0 -3 -1l-307 -245q-1 -1 -2 -1q-1 -1 -3 -4l-1 -2q-2 -1 -2 -1.5t-1 -2.5v-2q-1 -4 -1 -5v-3v-629q0 -35 25 -60t60 -25h226v49h-226q-15 0 -25.5 10.5t-10.5 25.5zM411 813v-134q0 -15 -11 -25.5t-25 -10.5
h-178z" />
    <glyph glyph-name="pingyu" unicode="&#xe618;" horiz-adv-x="1034" 
d="M150 608v-310v0q0 -46 32 -78t77 -32v0h165l5 -138l162 138h184v0q45 0 77 32t32 78v0v310v0q0 46 -32 78t-77 32v0h-516v0q-45 0 -77 -32t-32 -77v-1zM622 436v0q0 21 15.5 36.5t36.5 15.5v0v0q22 0 37 -15.5t15 -36.5v0v0q0 -22 -15 -37t-37 -15v0v0q-21 0 -36.5 15
t-15.5 37v0zM464 435.5q0 21.5 15 37t36.5 15.5t37 -15.5t15.5 -37t-15.5 -36.5t-37 -15t-36.5 15t-15 36.5zM308 435.5q0 21.5 15.5 37t37 15.5t36.5 -15.5t15 -37t-15 -36.5t-36.5 -15t-37 15t-15.5 36.5z" />
    <glyph glyph-name="yiyuanpaidui" unicode="&#xe62a;" 
d="M514 896q103 0 195.5 -39t166.5 -109q70 -74 109 -167.5t39 -198.5q0 -103 -39 -195.5t-109 -166.5q-74 -70 -166.5 -109t-195.5 -39q-105 0 -198.5 39t-167.5 109q-70 74 -109 166.5t-39 195.5q0 105 39 198.5t109 167.5q74 70 167.5 109t198.5 39zM789 147v209
q0 26 -20 45.5t-46 19.5h-8v122q0 29 -19.5 47t-46.5 18h-122v48h66v40h-66v56h-39v-56h-65v-40h65v-48h-113q-27 0 -46.5 -18t-19.5 -47v-122h-8q-26 0 -46 -19.5t-20 -45.5v-209h-48v-40h650v40h-48zM270 147v209q0 13 9 21.5t22 8.5h8v-239h-39zM349 147v396q0 13 8 22
t18 9h274q13 0 22 -9t9 -22v-396h-331zM715 147v239h8q13 0 22 -8.5t9 -21.5v-209h-39zM392 530h52v-52h-52v52zM484 530h56v-52h-56v52zM580 530h52v-52h-52v52zM392 434h52v-52h-52v52zM484 434h56v-52h-56v52zM580 434h52v-52h-52v52zM392 338h52v-52h-52v52zM484 338h56
v-52h-56v52zM580 338h52v-52h-52v52zM849.5 721.5q-66.5 66.5 -152.5 103t-183 36.5q-99 0 -186 -36.5t-153.5 -103t-103 -153.5t-36.5 -186q0 -97 36.5 -183t103 -152.5t153.5 -103t186 -36.5q97 0 183 36.5t152.5 103t103 152.5t36.5 183q0 99 -36.5 186t-103 153.5z" />
    <glyph glyph-name="shoucang" unicode="&#xe622;" 
d="M518 825q-13 0 -19 -12l-120 -259l-25 -4l-251 -39q-14 -3 -17 -16q-1 -3 -1 -7q0 -9 6 -16l200 -208l-3 -24l-43 -265v-4q0 -12 9 -18q5 -4 12 -4q6 0 11 3l241 131l242 -132q5 -2 11 -2t12 3q9 7 9 19v4l-43 265l-4 24l201 208q6 7 6 16q0 4 -1 8q-4 13 -18 15l-276 43
l-10 23l-110 236q-5 12 -19 13v-1zM518.5 874q20.5 0 37.5 -11t25 -30l109 -236l251 -39q19 -3 34 -15.5t22 -31.5q13 -41 -17 -72l-183 -191l42 -265q3 -21 -4.5 -39.5t-23.5 -30.5q-18 -12 -40 -12q-19 0 -34 8l-219 119l-218 -119q-16 -8 -34 -8q-22 0 -40 13
q-30 21 -30 57q0 6 1 12l43 265l-184 191q-20 21 -20 49q0 12 4 23q6 19 21 31.5t35 15.5l250 39l109 236q9 19 26 30t37.5 11z" />
    <glyph glyph-name="zhiyejineng" unicode="&#xe61f;" 
d="M282 365h207l2 8q3 23 8 41l4 13h-221v-62zM282 148h295l-17 17q-18 18 -32 40l-3 5h-243v-62zM490 310l-1 8h-207v-62h220l-4 13q-6 20 -8 41zM662 103l-13 4v-50q0 -9 -6.5 -15.5t-15.5 -6.5h-477q-9 0 -15.5 6.5t-6.5 15.5v527l138 115v-108h-83v-62h145v204h299
q9 0 15.5 -6.5t6.5 -15.5v-139l13 4q18 6 40 9l9 1v125q0 35 -24.5 59.5t-59.5 24.5h-342l-219 -182v-556q0 -35 24.5 -59.5t59.5 -24.5h477q35 0 59.5 24.5t24.5 59.5v36l-9 1q-22 3 -40 9zM736 562q-92 0 -157 -65.5t-65 -157t65 -157t157 -65.5t157 65.5t65 157t-65 157
t-157 65.5zM896 339.5q0 -66.5 -47 -113.5t-113 -47t-113 47t-47 113.5t47 113.5t113 47t113 -47t47 -113.5zM171 427h74v-62h-74v62zM726 332l-76 58l-38 -49l125 -96l123 160l-49 37zM171 318h74v-62h-74v62zM171 210h74v-62h-74v62z" />
    <glyph glyph-name="lishi" unicode="&#xe6ed;" 
d="M512 832q-187 0 -317.5 -130.5t-130.5 -317.5t130.5 -317.5t317.5 -130.5t317.5 130.5t130.5 317.5t-130.5 317.5t-317.5 130.5zM768 288h-256q-14 0 -23 9t-9 23v320q0 14 9 23t23 9t23 -9t9 -23v-288h224q14 0 23 -9t9 -23t-9 -23t-23 -9z" />
    <glyph glyph-name="recent-events" unicode="&#xe654;" 
d="M294 495h404q10 0 16.5 6.5t6.5 16t-6.5 16t-16.5 6.5h-404q-9 0 -15.5 -6.5t-6.5 -16t6.5 -16t15.5 -6.5zM294 113h226q-13 20 -21 45h-205q-9 0 -15.5 -6.5t-6.5 -16t6.5 -16t15.5 -6.5zM294 304h207q9 24 21 45h-228q-9 0 -15.5 -6.5t-6.5 -16t6.5 -16t15.5 -6.5z
M821 4q0 -9 -9.5 -15.5t-22.5 -6.5h-585q-13 0 -22.5 6.5t-9.5 15.5v698q0 9 9.5 15.5t22.5 6.5h89q6 -30 30.5 -50t55.5 -20h234q32 0 56.5 20t30.5 50h89q13 0 22.5 -6.5t9.5 -15.5v-275q25 -13 44 -31v306q0 28 -22.5 47t-53.5 19h-91q-8 28 -31.5 46t-53.5 18h-234
q-29 0 -52.5 -18t-32.5 -46h-90q-31 0 -53.5 -19t-22.5 -47v-698q0 -27 22.5 -46.5t53.5 -19.5h584q32 0 54.5 19.5t22.5 46.5v56q-20 -18 -44 -31v-25v0zM379 788h234q19 0 32 -13t13 -31.5t-13 -32t-32 -13.5h-234q-18 0 -31 13.5t-13 32t13 31.5t31 13zM714 25
q84 0 143.5 59.5t59.5 143.5t-59.5 143.5t-143.5 59.5t-143.5 -59.5t-59.5 -143.5t59.5 -143.5t143.5 -59.5zM714 396q70 0 119 -49t49 -118.5t-49 -119t-119 -49.5t-119 49.5t-49 119t49 118.5t119 49zM714 207h98q7 0 12 5.5t5 12.5t-5 12.5t-12 5.5h-81v91q0 7 -5 12.5
t-12 5.5t-12.5 -5.5t-5.5 -12.5v-109q0 -7 5 -12.5t13 -5.5z" />
    <glyph glyph-name="baocun" unicode="&#xe6c7;" 
d="M626 782l284 -284v-512h-796v796h512zM568 727v-228h-341v228h-57v-683h113v285h456v-285h113v427l-250 256h-34zM341 270v-227h342v227h-342zM398 725v-170h114v170h-114z" />
    <glyph glyph-name="xuexiao" unicode="&#xe66f;" 
d="M356.5 236q-7.5 0 -12.5 5.5t-5 12.5v151q0 8 5 13t12.5 5t13 -5t5.5 -13v-151q0 -7 -5.5 -12.5t-13 -5.5zM508 179q-41 0 -90 17t-68 36q-11 10 -11 22q0 8 5 13t13 5q14 0 17 -14q10 -12 55.5 -28t82.5 -15q38 1 83 16.5t55 26.5q3 14 17 14q8 0 13.5 -5t5.5 -13
q0 -27 -63 -50.5t-110 -24.5h-5zM512 307q-4 0 -8 2l-245 127q-9 6 -9 16.5t9 15.5l245 128q8 5 16 0l245 -128q9 -5 9 -15.5t-9 -16.5l-245 -127q-4 -2 -8 -2zM306 452l206 -107l206 107l-206 108zM667.5 236q-7.5 0 -13 5.5t-5.5 12.5v151q0 8 5.5 13t13 5t13 -5t5.5 -13
v-151q0 -7 -5.5 -12.5t-13 -5.5zM756.5 214q-7.5 0 -13 5.5t-5.5 12.5v220q0 8 5.5 13t13 5t12.5 -5t5 -13v-220q0 -7 -5 -12.5t-12.5 -5.5zM512 -66q-91 0 -175 36q-81 34 -143 96t-96 143q-36 84 -36 175t36 175q34 81 96 143t143 96q84 36 175 36t175 -36q81 -34 143 -96
t96 -143q36 -84 36 -175t-36 -175q-34 -81 -96 -143t-143 -96q-84 -36 -175 -36zM512 794q-111 0 -205.5 -55t-149.5 -149.5t-55 -205.5t55 -205.5t149.5 -149.5t205.5 -55t205.5 55t149.5 149.5t55 205.5t-55 205.5t-149.5 149.5t-205.5 55z" />
    <glyph glyph-name="fujian" unicode="&#xe88a;" 
d="M516 520l137 137q18 17 48.5 30t56 13t56 -12.5t48.5 -30.5t30.5 -48.5t12.5 -56t-12.5 -56t-30.5 -48.5l-205 -205v0l-154 -154q-64 -64 -155 -64t-155.5 64.5t-64.5 155.5t64 156l239 239q6 6 6 14q0 9 -6 15.5t-15 6.5t-15 -6l-239 -239q-77 -77 -77 -186t77 -186
t186 -77t186 77l153 154v0v0l205 205q56 55 56 134t-56 135t-135 55.5t-134 -55.5l-137 -137l-187 -187q-15 -15 -25 -39.5t-10 -44.5t10 -44.5t24.5 -38.5t39 -24.5t44.5 -10.5t44.5 10.5t38.5 24.5l256 256q6 6 6 15q0 8 -6 14.5t-15 6.5t-15 -6l-256 -256
q-9 -9 -24.5 -15.5t-28.5 -6.5t-28.5 6.5t-24.5 15.5t-15.5 24.5t-6.5 28.5t6.5 28.5t15.5 24.5z" />
    <glyph glyph-name="tongji2" unicode="&#xe69f;" 
d="M975 164h-30v661h30q13 0 22 9.5t9 22.5t-9 22t-22 9h-923q-13 0 -22 -9t-9 -22t9 -22.5t22 -9.5h31v-661h-31q-13 0 -22 -9.5t-9 -22.5t9 -22t22 -9h295l-163 -166q-9 -10 -9 -23t9 -22.5t22 -9.5t22 10l206 211h49v-126q0 -13 9 -22t21.5 -9t21.5 9t9 22v126h49
l206 -211q9 -10 22 -10t22 9.5t9 22.5t-9 23l-162 166h294q13 0 22 9t9 22t-9 22.5t-22 9.5zM668 562l-161 -135l-91 80l-65 -57q-6 -5 -14 -4.5t-13 6.5t-4.5 14t6.5 13l90 80l92 -80l135 113q6 5 14 4.5t13 -7t4.5 -14.5t-6.5 -13z" />
    <glyph glyph-name="activity" unicode="&#xe6de;" 
d="M800 51v-2v-1h-575q-1 1 -1 3v477h576v-477zM224 685v2v1h128v-16q0 -13 9.5 -22.5t22.5 -9.5t22.5 9.5t9.5 22.5v16h192v-16q0 -13 9.5 -22.5t22.5 -9.5t22.5 9.5t9.5 22.5v16h127q1 -1 1 -3v-93h-576v93zM800 752h-128v16q0 13 -9.5 22.5t-22.5 9.5t-22.5 -9.5
t-9.5 -22.5v-16h-192v16q0 13 -9.5 22.5t-22.5 9.5t-22.5 -9.5t-9.5 -22.5v-16h-128q-27 0 -45.5 -19.5t-18.5 -47.5v-634q0 -28 18.5 -47.5t45.5 -19.5h576q27 0 45.5 19.5t18.5 47.5v634q0 28 -19 47.5t-45 19.5v0zM384 336h256q13 0 22.5 9.5t9.5 22.5t-9.5 22.5
t-22.5 9.5h-256q-13 0 -22.5 -9.5t-9.5 -22.5t9.5 -22.5t22.5 -9.5zM384 176h256q13 0 22.5 9.5t9.5 22.5t-9.5 22.5t-22.5 9.5h-256q-13 0 -22.5 -9.5t-9.5 -22.5t9.5 -22.5t22.5 -9.5v0z" />
    <glyph glyph-name="chuyidong" unicode="&#xe617;" 
d="M512 432l-175 175q-10 10 -24 10t-24 -10t-10 -24t10 -24l175 -175l-175 -175q-10 -10 -10 -24t10 -24t24 -10t24 10l175 175l175 -175q10 -10 24 -10t24 10t10 24t-10 24l-175 175l175 175q10 10 10 24t-10 24t-24 10t-24 -10l-175 -175v0z" />
    <glyph glyph-name="tongji" unicode="&#xe651;" 
d="M852 801h-680q-24 0 -41.5 -17.5t-17.5 -41.5v-680q0 -25 17.5 -42t41.5 -17h680q24 0 41.5 17t17.5 42v680q0 24 -17.5 41.5t-41.5 17.5zM865 62q0 -5 -4 -9t-10 -4h-678q-6 0 -10 4t-4 9v679q0 6 4 9.5t10 3.5h678q6 0 10 -3.5t4 -9.5v-679zM338 343h44v-129h-44v129z
M490 589h44v-375h-44v375zM643 484h43v-270h-43v270z" />
    <glyph glyph-name="packup" unicode="&#xe749;" 
d="M793 186q9 -10 23 -10q13 0 22.5 9.5t9.5 22.5t-9 22l-310 320q-10 10 -23 10q-14 0 -24 -10l-297 -320q-9 -9 -9 -22t9.5 -22.5t22.5 -9.5q14 0 23 10l275 296z" />
    <glyph glyph-name="unfold" unicode="&#xe74a;" 
d="M231 550q-9 10 -23 10q-13 0 -22.5 -9.5t-9.5 -22.5t9 -22l297 -320q10 -10 24 -10q13 0 23 10l310 320q9 9 9 22t-9.5 22.5t-22.5 9.5q-14 0 -23 -10l-287 -296l-275 296v0z" />
    <glyph glyph-name="pinpaixuanchuan" unicode="&#xe63f;" 
d="M874 746q-72 72 -165.5 110.5t-196.5 38.5t-196.5 -38.5t-166 -111t-111 -165.5t-38.5 -196t38.5 -196t111 -165.5t166 -111t196.5 -38.5t196.5 38.5t165.5 110.5q98 98 133 230t0 264t-133 230zM846 50.5q-67 -66.5 -153 -102t-181 -35.5t-181 35.5t-153 102.5
q-90 90 -122.5 211.5t0 243t122.5 211.5q67 67 153 102.5t181 35.5t181 -35.5t152.5 -102t102.5 -152.5t36 -181t-35.5 -181t-102.5 -152.5zM339 384q25 0 25 24v178q0 24 24 44.5t52 20.5h156q26 0 46.5 -23t20.5 -48v-172q0 -25 25 -25q23 0 23 25v173q0 48 -37 82.5
t-90 34.5h-144q-53 0 -90 -34.5t-37 -82.5v-173q0 -24 26 -24zM696 340l-112 2l-36 104q-4 11 -14 18t-22 7q-27 0 -36 -25l-36 -104l-112 -2q-12 -1 -21.5 -8t-13.5 -19q-8 -25 13 -41l89 -67l-32 -105q-8 -25 14 -41q4 -3 10 -5q3 -1 5 -2h3h4h6q2 1 5 1q6 2 10 5l92 63
l92 -63q9 -6 21 -6t22 7q22 16 14 41l-32 105l89 67q21 16 13 42q-4 11 -13.5 18t-21.5 8zM584 220l-3 -2l38 -123l-107 73l-107 -73l38 123l-104 77l127 3h3l43 122l42 -119l1 -3l130 -3zM570 227z" />
    <glyph glyph-name="baocunbingfabu" unicode="&#xe603;" 
d="M75 845h710l7 -7l173 -172l7 -7v-735h-921v921h24zM766 797h-667v-826h826v667zM323 587h378v222h-378v-222zM726 552h-452v293h474v-293h-22zM614 763v-130h-49v130h49zM298 823h153v-255h-153v255zM474 64v0q-6 0 -10.5 4.5t-4.5 11.5v0v96q0 20 14 36q8 8 192 216
l-342 -177l115 -35l-11 -30l-5 2q-122 38 -134 42q-11 4 -14 15q0 15 14 23q7 4 212.5 107t211.5 106l3 3q2 0 5.5 1t5.5 1h7q10 -6 10 -23l-2 -1q0 -8 -40 -199l-8 -49q-4 -18 -8 -39t-6 -30.5t-2 -10.5q-6 -25 -30 -25h-7q-57 18 -115 35l-17 5l-6 2l9 30l5 -2q1 0 30 -9
t61.5 -18.5t38.5 -10.5q51 254 57 284q-136 -155 -188 -213l-21 -24q-4 -4 -4 -14v-94q-1 -7 -5.5 -11.5t-10.5 -4.5z" />
  </font>
</defs>
</svg>
